{
 "accessors": [
  {
   "componentType": 5126,
   "type": "VEC3",
   "count": 1922,
   "max": [
    100,
    98,
    200
   ],
   "min": [
    -100,
    -102,
    0
   ],
   "bufferView": 0
  },
  {
   "componentType": 5126,
   "type": "VEC3",
   "count": 1922,
   "bufferView": 1
  },
  {
   "componentType": 5123,
   "type": "SCALAR",
   "count": 6624,
   "bufferView": 2
  }
 ],
 "asset": {
  "version": "2.0",
  "generator": "clara.io"
 },
 "bufferViews": [
  {
   "buffer": 0,
   "byteOffset": 0,
   "byteLength": 23064,
   "target": 34962,
   "byteStride": 12
  },
  {
   "buffer": 0,
   "byteOffset": 23064,
   "byteLength": 23064,
   "target": 34962,
   "byteStride": 12
  },
  {
   "buffer": 0,
   "byteOffset": 46128,
   "byteLength": 13248,
   "target": 34963
  }
 ],
 "buffers": [
  {
   "byteLength": 59376,
   "uri": "data:application/octet-stream;base64,"
  }
 ],
 "materials": [
  {
   "name": "color_16768282",
   "pbrMetallicRoughness": {
    "baseColorFactor": [
     1,
     0.8666666666666667,
     0.10196078431372549,
     1
    ],
    "roughnessFactor": 0.25,
    "metallicFactor": 0
   }
  }
 ],
 "meshes": [
  {
   "primitives": [
    {
     "indices": 2,
     "material": 0,
     "mode": 4,
     "attributes": {
      "POSITION": 0,
      "NORMAL": 1
     }
    }
   ]
  }
 ],
 "nodes": [
  {
   "name": "tinker_root",
   "scale": [
    0.009999999776482582,
    0.009999999776482582,
    0.009999999776482582
   ],
   "children": [
    1
   ]
  },
  {
   "name": "group_0_16768282",
   "mesh": 0
  }
 ],
 "scene": 0,
 "scenes": [
  {
   "nodes": [
    0
   ]
  }
 ]
}