{
 "accessors": [
  {
   "componentType": 5126,
   "type": "VEC3",
   "count": 409,
   "max": [
    -37,
    -38,
    56.53219985961914
   ],
   "min": [
    -65,
    -67,
    0
   ],
   "bufferView": 0
  },
  {
   "componentType": 5126,
   "type": "VEC3",
   "count": 409,
   "bufferView": 1
  },
  {
   "componentType": 5123,
   "type": "SCALAR",
   "count": 933,
   "bufferView": 2
  },
  {
   "componentType": 5126,
   "type": "VEC3",
   "count": 472,
   "max": [
    68,
    96,
    113.98889923095703
   ],
   "min": [
    26,
    55,
    0
   ],
   "bufferView": 3
  },
  {
   "componentType": 5126,
   "type": "VEC3",
   "count": 472,
   "bufferView": 4
  },
  {
   "componentType": 5123,
   "type": "SCALAR",
   "count": 1176,
   "bufferView": 5
  },
  {
   "componentType": 5126,
   "type": "VEC3",
   "count": 1207,
   "max": [
    12,
    -19.631000518798828,
    222
   ],
   "min": [
    -115.97899627685547,
    -89,
    56
   ],
   "bufferView": 6
  },
  {
   "componentType": 5126,
   "type": "VEC3",
   "count": 1207,
   "bufferView": 7
  },
  {
   "componentType": 5123,
   "type": "SCALAR",
   "count": 2985,
   "bufferView": 8
  },
  {
   "componentType": 5126,
   "type": "VEC3",
   "count": 2756,
   "max": [
    131,
    101,
    212
   ],
   "min": [
    -46,
    -125,
    64.24310302734375
   ],
   "bufferView": 9
  },
  {
   "componentType": 5126,
   "type": "VEC3",
   "count": 2756,
   "bufferView": 10
  },
  {
   "componentType": 5123,
   "type": "SCALAR",
   "count": 8454,
   "bufferView": 11
  },
  {
   "componentType": 5126,
   "type": "VEC3",
   "count": 609,
   "max": [
    85,
    -55,
    65.7249984741211
   ],
   "min": [
    50,
    -90,
    0
   ],
   "bufferView": 12
  },
  {
   "componentType": 5126,
   "type": "VEC3",
   "count": 609,
   "bufferView": 13
  },
  {
   "componentType": 5123,
   "type": "SCALAR",
   "count": 1428,
   "bufferView": 14
  }
 ],
 "asset": {
  "version": "2.0",
  "generator": "clara.io"
 },
 "bufferViews": [
  {
   "buffer": 0,
   "byteOffset": 0,
   "byteLength": 4908,
   "target": 34962,
   "byteStride": 12
  },
  {
   "buffer": 0,
   "byteOffset": 4908,
   "byteLength": 4908,
   "target": 34962,
   "byteStride": 12
  },
  {
   "buffer": 0,
   "byteOffset": 9816,
   "byteLength": 1866,
   "target": 34963
  },
  {
   "buffer": 0,
   "byteOffset": 11684,
   "byteLength": 5664,
   "target": 34962,
   "byteStride": 12
  },
  {
   "buffer": 0,
   "byteOffset": 17348,
   "byteLength": 5664,
   "target": 34962,
   "byteStride": 12
  },
  {
   "buffer": 0,
   "byteOffset": 23012,
   "byteLength": 2352,
   "target": 34963
  },
  {
   "buffer": 0,
   "byteOffset": 25364,
   "byteLength": 14484,
   "target": 34962,
   "byteStride": 12
  },
  {
   "buffer": 0,
   "byteOffset": 39848,
   "byteLength": 14484,
   "target": 34962,
   "byteStride": 12
  },
  {
   "buffer": 0,
   "byteOffset": 54332,
   "byteLength": 5970,
   "target": 34963
  },
  {
   "buffer": 0,
   "byteOffset": 60304,
   "byteLength": 33072,
   "target": 34962,
   "byteStride": 12
  },
  {
   "buffer": 0,
   "byteOffset": 93376,
   "byteLength": 33072,
   "target": 34962,
   "byteStride": 12
  },
  {
   "buffer": 0,
   "byteOffset": 126448,
   "byteLength": 16908,
   "target": 34963
  },
  {
   "buffer": 0,
   "byteOffset": 143356,
   "byteLength": 7308,
   "target": 34962,
   "byteStride": 12
  },
  {
   "buffer": 0,
   "byteOffset": 150664,
   "byteLength": 7308,
   "target": 34962,
   "byteStride": 12
  },
  {
   "buffer": 0,
   "byteOffset": 157972,
   "byteLength": 2856,
   "target": 34963
  }
 ],
 "buffers": [
  {
   "byteLength": 160828,
   "uri": "data:application/octet-stream;base64,"
  }
 ],
 "materials": [
  {
   "name": "color_11107152",
   "pbrMetallicRoughness": {
    "baseColorFactor": [
     0.6627450980392157,
     0.4823529411764706,
     0.3137254901960784,
     1
    ],
    "roughnessFactor": 0.25,
    "metallicFactor": 0
   }
  },
  {
   "name": "color_1206582",
   "pbrMetallicRoughness": {
    "baseColorFactor": [
     0.07058823529411765,
     0.4117647058823529,
     0.21176470588235294,
     1
    ],
    "roughnessFactor": 0.25,
    "metallicFactor": 0
   }
  },
  {
   "name": "color_14860437",
   "pbrMetallicRoughness": {
    "baseColorFactor": [
     0.8862745098039215,
     0.7529411764705882,
     0.5843137254901961,
     1
    ],
    "roughnessFactor": 0.25,
    "metallicFactor": 0
   }
  },
  {
   "name": "color_4634441",
   "pbrMetallicRoughness": {
    "baseColorFactor": [
     0.27450980392156865,
     0.7176470588235294,
     0.28627450980392155,
     1
    ],
    "roughnessFactor": 0.25,
    "metallicFactor": 0
   }
  },
  {
   "name": "color_6306067",
   "pbrMetallicRoughness": {
    "baseColorFactor": [
     0.3764705882352941,
     0.2235294117647059,
     0.07450980392156863,
     1
    ],
    "roughnessFactor": 0.25,
    "metallicFactor": 0
   }
  }
 ],
 "meshes": [
  {
   "primitives": [
    {
     "indices": 2,
     "material": 4,
     "mode": 4,
     "attributes": {
      "POSITION": 0,
      "NORMAL": 1
     }
    }
   ]
  },
  {
   "primitives": [
    {
     "indices": 5,
     "material": 0,
     "mode": 4,
     "attributes": {
      "POSITION": 3,
      "NORMAL": 4
     }
    }
   ]
  },
  {
   "primitives": [
    {
     "indices": 8,
     "material": 1,
     "mode": 4,
     "attributes": {
      "POSITION": 6,
      "NORMAL": 7
     }
    }
   ]
  },
  {
   "primitives": [
    {
     "indices": 11,
     "material": 3,
     "mode": 4,
     "attributes": {
      "POSITION": 9,
      "NORMAL": 10
     }
    }
   ]
  },
  {
   "primitives": [
    {
     "indices": 14,
     "material": 2,
     "mode": 4,
     "attributes": {
      "POSITION": 12,
      "NORMAL": 13
     }
    }
   ]
  }
 ],
 "nodes": [
  {
   "name": "tinker_root",
   "scale": [
    0.009999999776482582,
    0.009999999776482582,
    0.009999999776482582
   ],
   "children": [
    1,
    2,
    3,
    4,
    5
   ]
  },
  {
   "name": "group_0_6306067",
   "mesh": 0
  },
  {
   "name": "group_0_11107152",
   "mesh": 1
  },
  {
   "name": "group_0_1206582",
   "mesh": 2
  },
  {
   "name": "group_0_4634441",
   "mesh": 3
  },
  {
   "name": "group_0_14860437",
   "mesh": 4
  }
 ],
 "scene": 0,
 "scenes": [
  {
   "nodes": [
    0
   ]
  }
 ]
}